<svg width="244" height="74" viewBox="0 0 244 74" fill="none" xmlns="http://www.w3.org/2000/svg">
<g clip-path="url(#clip0_2_82)">
<path d="M136.84 49.1523C136.379 48.637 136.026 49.2337 135.809 49.505C135.212 50.2645 134.778 50.6985 134.236 51.1868C132.092 53.0314 128.349 52.8415 128.349 52.8415C125.391 52.8415 123.655 51.6479 121.648 49.0981C119.64 46.5482 120.318 40.7161 120.318 40.7161H133.015C134.805 40.7161 135.89 40.1465 136.352 39.6582C136.65 39.3598 137.41 38.7359 136.786 34.5856C136.053 29.7029 130.465 28.3738 126.884 28.4551C123.303 28.5365 120.861 30.5438 119.749 31.6018C119.287 32.0358 115.869 35.4808 115.869 41.774C115.869 45.4361 116.466 47.6875 117.443 49.7762C118.419 51.865 121.024 55.4727 127.345 55.4727C133.666 55.4727 136.352 51.1326 136.786 50.4544C137.22 49.7762 137.301 49.7762 136.786 49.1795L136.84 49.1523ZM121.512 34.8026C121.946 33.7447 123.981 30.3811 127.318 30.3811C130.655 30.3811 131.957 32.1985 132.391 32.9309C133.313 34.5043 133.205 36.9727 133.205 37.8679C133.205 38.9258 131.93 38.9258 131.93 38.9258H120.481C120.562 37.6509 121.078 35.8606 121.512 34.8026Z" fill="#80B857"/>
<path d="M216.355 49.1523C215.975 48.6911 215.622 49.2608 215.405 49.5591C215.188 49.8575 215.134 50.0474 213.75 51.1596C211.282 53.194 207.863 52.8143 207.863 52.8143C204.12 52.6244 202.492 50.9697 201.163 49.0709C199.318 46.4125 199.86 40.6889 199.86 40.6889H212.557C214.347 40.6889 215.405 40.3091 215.894 39.631C216.138 39.2783 217.114 38.4917 216.328 34.5584C215.351 29.6215 210.441 28.238 206.426 28.4279C202.845 28.5907 200.403 30.5166 199.291 31.5745C198.829 32.0086 195.411 35.4536 195.411 41.7468C195.411 45.4088 196.008 47.6603 196.985 49.749C197.961 51.8377 200.566 55.4455 206.887 55.4455C213.208 55.4455 215.894 51.1053 216.328 50.4272C216.762 49.749 216.843 49.7762 216.328 49.1523H216.355ZM201.027 34.8025C201.461 33.7446 203.496 30.381 206.833 30.381C210.169 30.381 211.444 32.1984 211.906 32.9308C212.909 34.5584 212.801 36.9726 212.72 37.8678C212.638 38.763 211.444 38.9257 211.444 38.9257H199.996C200.077 37.6508 200.593 35.8605 201.027 34.8025Z" fill="#80B857"/>
<path d="M142.754 18.9068V52.4075C142.754 52.8144 143.134 55.1744 145.494 55.1744C147.855 55.1744 149.428 54.4148 150.405 53.7638C151.381 53.0856 151.761 52.7059 152.032 52.4075C152.304 52.1091 152.521 50.156 150.703 51.5123C149.591 52.3261 149.021 52.6245 148.18 52.5703C147.122 52.4889 147.149 51.7565 147.149 50.5629V18.9068C147.149 18.9068 147.285 17.6318 144.897 17.6318C142.673 17.6318 142.754 18.9068 142.754 18.9068Z" fill="#80B857"/>
<path d="M183.855 18.9067V52.4074C183.855 52.4074 183.855 55.1743 186.595 55.1743C188.982 55.1743 190.528 54.4148 191.505 53.7637C192.482 53.0856 192.617 52.8957 193.133 52.4074C193.675 51.9463 193.73 50.2916 191.803 51.5123C191.207 51.892 190.42 52.3803 189.28 52.5702C188.249 52.733 188.249 51.7564 188.249 50.5629V18.9067C188.249 18.9067 188.304 17.686 186.052 17.686C183.827 17.686 183.855 18.9067 183.855 18.9067Z" fill="#80B857"/>
<path d="M178.51 51.6479C177.425 52.1904 177.1 52.4345 176.34 52.2447C175.662 52.0819 175.743 50.8612 175.743 49.9932V34.8568C175.743 32.6054 174.767 31.0049 173.247 29.8385C171.728 28.6721 168.418 28.4551 166.519 28.4551C164.62 28.4551 161.799 28.645 159.791 30.1098C157.784 31.5746 157.16 32.8766 157.16 34.2872C157.16 35.6977 157.648 37.5423 159.656 37.5423C161.663 37.5423 162.477 36.3216 162.748 35.969C163.02 35.6164 161.717 35.8063 161.555 34.4228C161.473 33.6633 161.5 32.4426 162.83 31.5203C164.213 30.5709 165.054 30.4082 166.655 30.3268C168.364 30.2454 171.131 30.598 171.131 33.9617C171.131 37.3253 171.05 40.6076 171.05 40.6076C171.05 40.6076 166.031 40.5804 162.151 42.0724C158.272 43.5643 156.237 46.0057 156.237 49.3964C156.237 52.7872 158.842 55.3913 162.179 55.3913C165.515 55.3913 168.5 53.2212 169.259 52.6244C169.992 52.0277 171.077 50.9155 171.077 50.9155V53.0584C171.077 53.8451 172.026 54.7403 174.088 54.7403C176.15 54.7403 177.588 53.9265 178.185 53.4653C178.782 53.0042 179.189 52.6787 179.406 52.4888C179.65 52.2989 180.138 50.807 178.51 51.5936V51.6479ZM171.077 47.9045C171.077 47.9045 168.283 51.892 164.674 51.892C161.066 51.892 160.659 49.5049 160.659 48.5555C160.659 47.6061 161.5 44.9749 164.539 43.7813C166.411 43.0218 171.077 42.5878 171.077 42.5878V47.9045Z" fill="#80B857"/>
<path d="M242.861 51.6479C241.749 52.1633 241.45 52.4346 240.691 52.2447C239.958 52.0548 240.094 50.8612 240.094 49.9932V34.8568C240.094 32.6054 239.117 31.0049 237.598 29.8385C236.079 28.6721 232.769 28.4551 230.87 28.4551C228.971 28.4551 226.149 28.645 224.142 30.1098C222.134 31.5746 221.51 32.8766 221.51 34.2872C221.51 35.6977 221.999 37.5423 224.006 37.5423C226.014 37.5423 226.828 36.3216 227.099 35.969C227.37 35.6164 226.068 35.8063 225.905 34.4228C225.824 33.6633 225.797 32.524 227.099 31.5746C228.401 30.6252 229.296 30.3539 231.006 30.3539C232.715 30.3539 235.482 30.6252 235.482 33.9888C235.482 37.3524 235.4 40.6347 235.4 40.6347C235.4 40.6347 230.382 40.6076 226.502 42.0995C222.623 43.5914 220.588 46.0328 220.588 49.4236C220.588 52.8143 223.192 55.4184 226.529 55.4184C229.866 55.4184 232.85 53.2483 233.61 52.6516C234.37 52.0548 235.428 50.8884 235.428 50.8884C235.428 50.8884 235.428 52.2447 235.428 53.0313C235.428 53.818 236.35 54.7945 238.439 54.7945C240.528 54.7945 241.939 53.9807 242.535 53.5196C243.132 53.0585 243.512 52.7872 243.756 52.5431C244 52.2989 244.489 50.8884 242.861 51.6479ZM235.428 47.9045C235.428 47.9045 232.633 51.892 229.025 51.892C225.417 51.892 225.01 49.5049 225.01 48.5555C225.01 47.6061 225.851 44.9749 228.889 43.7813C230.761 43.0218 235.428 42.5878 235.428 42.5878V47.9045Z" fill="#80B857"/>
<path d="M215.08 18.6897C214.104 16.6823 210.604 16.7366 207.267 18.9067C203.93 21.0768 201.896 25.4983 201.896 25.4983C201.896 25.4983 204.419 23.8979 206.29 23.491C209.329 22.8128 210.767 24.0064 212.829 23.1926C214.918 22.3788 216.03 20.7241 215.053 18.7168L215.08 18.6897ZM212.557 19.6933C211.391 19.0966 210.143 18.988 208.434 19.2051C208.434 19.2051 210.224 18.0929 212.015 18.0386C213.805 17.9573 214.402 18.7982 214.266 19.4492C214.104 20.1273 213.507 20.1816 212.557 19.6933Z" fill="#80B857"/>
<path d="M8.22049 51.5666C5.67034 51.2139 3.68991 49.5321 2.87604 47.0637C2.08929 44.6223 2.68613 42.0724 4.53092 40.2821L7.54226 37.3254L6.05015 35.8877L3.09307 38.7902C0.73283 41.123 -0.108175 44.5409 0.922734 47.7147C1.95364 50.8884 4.63943 53.1399 7.92207 53.6282L11.8558 54.1978L12.2085 52.1634L8.22049 51.5937V51.5666Z" fill="#80B857" stroke="#80B857" stroke-width="0.36" stroke-miterlimit="10"/>
<path d="M40.3689 12.017L45.1165 9.49426L44.1941 7.62256L39.3922 10.1724C37.4661 11.2032 35.1872 11.2032 33.261 10.1724L28.5406 7.70394L27.6182 9.57564L32.3115 12.0441C34.8345 13.3733 37.8459 13.3733 40.3689 12.0441V12.017Z" fill="#80B857" stroke="#80B857" stroke-width="0.36" stroke-miterlimit="10"/>
<path d="M25.6916 57.8598C24.4166 55.31 21.9749 53.5197 19.1535 53.1128L13.9718 52.3804L13.6191 54.4148L18.8551 55.1744C20.9983 55.4727 22.8702 56.8291 23.8197 58.7821L26.0986 63.3936L27.9162 62.417L25.6645 57.8327L25.6916 57.8598Z" fill="#80B857" stroke="#80B857" stroke-width="0.36" stroke-miterlimit="10"/>
<path d="M12.9685 13.9158C12.5344 11.3931 13.5111 8.95174 15.5729 7.43268C16.7394 6.56465 18.0959 6.13063 19.4524 6.13063C20.4833 6.13063 21.5413 6.37476 22.518 6.91729L26.0448 8.76186L26.9671 6.89016L23.4946 5.07271C20.5375 3.52652 17.065 3.79778 14.3792 5.77799C11.6934 7.7582 10.3912 11.0133 10.9609 14.2956L11.612 18.0119L13.6467 17.7135L12.9956 13.9429L12.9685 13.9158Z" fill="#80B857" stroke="#80B857" stroke-width="0.36" stroke-miterlimit="10"/>
<path d="M14.8671 24.8207L13.9176 19.4497L11.8829 19.7481L12.8324 25.1733C13.2122 27.3163 12.5069 29.5135 10.9605 31.0325L7.3252 34.6132L8.8173 36.0509L12.4255 32.4974C14.4602 30.49 15.3826 27.6147 14.8942 24.7935L14.8671 24.8207Z" fill="#80B857" stroke="#80B857" stroke-width="0.36" stroke-miterlimit="10"/>
<path d="M69.7495 38.6007L66.8196 35.7524L65.3546 37.2173L68.3117 40.0926C70.1564 41.8829 70.7804 44.4328 69.9937 46.8741C69.2069 49.3155 67.2265 51.0244 64.6764 51.4042L60.7969 51.9738L61.1496 54.0083L64.9748 53.4387C68.2574 52.9504 70.9432 50.6718 71.947 47.498C72.9508 44.3243 72.1098 40.9064 69.7224 38.6007H69.7495Z" fill="#80B857" stroke="#80B857" stroke-width="0.36" stroke-miterlimit="10"/>
<path d="M47.2861 57.7786L45.0615 62.3087L46.9063 63.2581L49.1309 58.6738C50.0804 56.7207 51.9252 55.3644 54.0955 55.0389L59.4129 54.2522L59.0602 52.2178L53.7971 53.0044C50.9757 53.4113 48.5341 55.2016 47.2861 57.7786Z" fill="#80B857" stroke="#80B857" stroke-width="0.36" stroke-miterlimit="10"/>
<path d="M60.3897 32.3888L64.0793 35.9694L65.5442 34.5046L61.8275 30.8697C60.2812 29.3507 59.5487 27.1535 59.9014 25.0105L60.8238 19.5582L58.7891 19.2598L57.8938 24.6579C57.4326 27.479 58.355 30.3543 60.4168 32.3345L60.3897 32.3888Z" fill="#80B857" stroke="#80B857" stroke-width="0.36" stroke-miterlimit="10"/>
<path d="M42.4302 67.7339C41.2908 70.0396 39.0933 71.4231 36.5432 71.4502C33.993 71.4502 31.7684 70.0668 30.629 67.7882L28.7571 64.0448L26.9395 65.0213L28.7842 68.7376C30.2492 71.7214 33.2334 73.566 36.5432 73.566H36.5703C39.8801 73.566 42.8643 71.6943 44.3293 68.6833L46.1741 64.9128L44.3293 63.9634L42.4845 67.761L42.4302 67.7339Z" fill="#80B857" stroke="#80B857" stroke-width="0.36" stroke-miterlimit="10"/>
<path d="M50.108 6.83564C52.3869 5.6421 54.9642 5.80485 57.0531 7.32391C59.1421 8.84298 60.1187 11.2572 59.6846 13.7799L59.0607 17.5505L61.0954 17.8488L61.7193 14.1326C62.2619 10.8503 60.9326 7.59517 58.2468 5.6421C55.561 3.68902 52.0613 3.44488 49.1314 4.99107L45.7402 6.78139L46.6626 8.65309L50.0809 6.83564H50.108Z" fill="#80B857" stroke="#80B857" stroke-width="0.36" stroke-miterlimit="10"/>
<path d="M6.70083 34.0435C4.39485 31.792 3.58097 28.6183 4.58475 25.5259C5.5614 22.4335 8.05729 20.3177 11.2585 19.8566L11.9096 19.7481L11.6112 17.9849L11.0144 18.0662C7.18915 18.6359 4.09642 21.2671 2.92987 24.9563C1.76331 28.6454 2.73996 32.6058 5.50714 35.2913L6.07686 35.861L7.35193 34.6132L6.72796 34.0164L6.70083 34.0435Z" fill="#80B857" stroke="#80B857" stroke-width="0.31" stroke-miterlimit="10"/>
<path d="M47.7204 14.4312C48.887 14.594 50.0264 15.0009 51.0302 15.7333C52.0068 16.4386 52.7393 17.3609 53.2276 18.3916C53.6617 18.5001 54.0958 18.6087 54.5298 18.6629L58.762 19.2597L59.0604 17.4965L54.774 16.8726C52.0611 16.4928 49.728 14.7839 48.5343 12.3425L46.6624 8.59912L45.0889 9.44003L46.9336 13.1563C47.1507 13.5903 47.422 13.9972 47.6933 14.4041L47.7204 14.4312Z" fill="#80B857" stroke="#80B857" stroke-width="0.31" stroke-miterlimit="10"/>
<path d="M59.4946 54.8221C60.0372 57.9958 58.8164 61.0611 56.2391 62.9599C53.6347 64.8859 50.3792 65.13 47.5035 63.6109L46.8795 63.2854L46.0928 64.8859L46.6625 65.1843C50.0808 66.9746 54.1501 66.6762 57.2429 64.3705C60.3627 62.0919 61.882 58.2942 61.2037 54.4966L61.1224 54.0083L59.3589 54.2796L59.4403 54.8221H59.4946Z" fill="#80B857" stroke="#80B857" stroke-width="0.31" stroke-miterlimit="10"/>
<path d="M25.5835 63.665C22.7349 65.1841 19.4794 64.94 16.8479 63.0411C14.2435 61.1423 12.9955 58.1042 13.5381 54.9304L13.6195 54.415L11.8561 54.1709L11.7747 54.6592C11.1236 58.4839 12.67 62.2545 15.7898 64.5059C17.5532 65.7809 19.6151 66.4319 21.6769 66.4319C23.2775 66.4319 24.9052 66.0521 26.3973 65.2383L26.8857 64.9671L26.0989 63.3666L25.5563 63.6379L25.5835 63.665Z" fill="#80B857" stroke="#80B857" stroke-width="0.31" stroke-miterlimit="10"/>
<path d="M58.5992 43.0762C58.5992 43.0762 58.6263 42.9134 58.6534 42.832C58.5992 42.9677 58.5721 43.0762 58.5449 43.2118C58.5449 43.1575 58.5721 43.1304 58.5992 43.0762Z" fill="#80B857" stroke="#80B857" stroke-width="0.31" stroke-miterlimit="10"/>
<path d="M61.5841 19.6937C64.7853 20.1549 67.2812 22.2707 68.285 25.336C69.2887 28.4012 68.502 31.6021 66.2231 33.8536L65.572 34.5046L66.8471 35.7524L67.4711 35.1285C70.2111 32.4159 71.1878 28.4555 69.9941 24.7663C68.8004 21.0772 65.6806 18.4731 61.8553 17.9034L61.15 17.7949L60.8516 19.5581L61.6112 19.6666L61.5841 19.6937Z" fill="#80B857" stroke="#80B857" stroke-width="0.31" stroke-miterlimit="10"/>
<path d="M36.5435 59.2163C36.5435 59.2163 36.7063 59.2163 36.7877 59.2163C36.5978 59.2163 36.4079 59.2163 36.2451 59.2163C36.3265 59.2163 36.4079 59.2163 36.4893 59.2163H36.5435Z" fill="#80B857" stroke="#80B857" stroke-width="0.31" stroke-miterlimit="10"/>
<path d="M61.15 38.8449C60.8245 39.1704 60.4989 39.5502 60.2276 39.9028C60.4447 41.0692 60.4175 42.317 60.0106 43.5106C59.6308 44.677 58.9797 45.6807 58.1387 46.4673C58.1387 46.9013 58.1929 47.3353 58.2743 47.7694L59.0339 52.218L60.7973 51.9468L60.0106 47.471C59.5494 44.7855 60.4175 42.0186 62.3708 40.0927L65.3279 37.1902L64.0528 35.9424L61.1229 38.8178L61.15 38.8449Z" fill="#80B857" stroke="#80B857" stroke-width="0.31" stroke-miterlimit="10"/>
<path d="M39.9616 59.7588C38.9307 60.3284 37.7641 60.654 36.5433 60.6811C36.5433 60.6811 36.4891 60.6811 36.4619 60.6811C35.2411 60.6811 34.0746 60.3556 33.0436 59.813C32.6367 59.9758 32.2298 60.1386 31.85 60.3556L27.9434 62.4443L28.7301 64.0447L32.691 61.956C35.1055 60.6811 37.9812 60.6539 40.3957 61.956L44.2751 63.9905L45.0619 62.39L41.2095 60.3827C40.8026 60.1657 40.3685 60.0029 39.9616 59.8402V59.7588Z" fill="#80B857" stroke="#80B857" stroke-width="0.31" stroke-miterlimit="10"/>
<path d="M19.6965 18.4729C20.212 17.4149 20.9445 16.4655 21.9482 15.7603C22.9249 15.055 24.0101 14.621 25.1495 14.4582C25.3936 14.0784 25.6378 13.6715 25.8548 13.2647L27.6454 9.5755L26.0719 8.76172L24.2542 12.478C23.0605 14.9465 20.7274 16.6554 18.0416 17.0352L13.6738 17.6862L13.9722 19.4494L18.3129 18.7984C18.8012 18.717 19.2624 18.6085 19.7236 18.4729H19.6965Z" fill="#80B857" stroke="#80B857" stroke-width="0.31" stroke-miterlimit="10"/>
<path d="M28.947 6.86297C30.3577 3.96047 33.1249 2.2244 36.3533 2.19728H36.3804C39.5817 2.19728 42.376 3.93335 43.7867 6.80871L44.1936 7.6225L45.7671 6.78159L45.3873 6.02206C43.6782 2.57704 40.2328 0.434082 36.3804 0.434082H36.3533C32.5009 0.434082 29.0555 2.60417 27.3464 6.07631L26.9395 6.89009L28.5129 7.70388L28.9199 6.86297H28.947Z" fill="#80B857" stroke="#80B857" stroke-width="0.31" stroke-miterlimit="10"/>
<path d="M14.8395 46.5215C13.9714 45.7077 13.3203 44.6769 12.9405 43.5105C12.5607 42.344 12.5064 41.1505 12.7235 40.0112C12.4522 39.6586 12.1537 39.3059 11.8011 38.9804L8.78972 36.0508L7.51465 37.2986L10.5531 40.2553C12.5064 42.1542 13.4017 44.921 12.9676 47.6065L12.208 52.1094L13.9714 52.3536L14.731 47.9049C14.8124 47.4437 14.8395 46.9826 14.8667 46.5215H14.8395Z" fill="#80B857" stroke="#80B857" stroke-width="0.31" stroke-miterlimit="10"/>
<path d="M59.0605 52.2178L59.4132 54.2794L61.1495 54.0081L60.7968 51.9736L59.0605 52.2178Z" fill="#80B857" stroke="#80B857" stroke-width="0.31" stroke-miterlimit="10"/>
<path d="M45.0621 62.3359L44.2754 63.9364L46.1202 64.8858L46.8798 63.2854L45.0621 62.3359Z" fill="#80B857" stroke="#80B857" stroke-width="0.31" stroke-miterlimit="10"/>
<path d="M58.7617 19.2869L60.8235 19.5852L61.122 17.822L59.0601 17.5508L58.7617 19.2869Z" fill="#80B857" stroke="#80B857" stroke-width="0.31" stroke-miterlimit="10"/>
<path d="M13.9452 19.4497L13.6468 17.6865L11.585 17.9849L11.9105 19.7481L13.9452 19.4497Z" fill="#80B857" stroke="#80B857" stroke-width="0.31" stroke-miterlimit="10"/>
<path d="M27.9436 62.417L26.126 63.3935L26.9127 64.994L28.7304 64.0174L27.9436 62.417Z" fill="#80B857" stroke="#80B857" stroke-width="0.31" stroke-miterlimit="10"/>
<path d="M13.9718 52.3804L12.2084 52.1362L11.8828 54.1707L13.6191 54.4148L13.9718 52.3804Z" fill="#80B857" stroke="#80B857" stroke-width="0.31" stroke-miterlimit="10"/>
<path d="M45.1157 9.46722L46.6892 8.65344L45.7669 6.78174L44.1934 7.62265L45.1157 9.46722Z" fill="#80B857" stroke="#80B857" stroke-width="0.31" stroke-miterlimit="10"/>
<path d="M27.6174 9.57562L28.5127 7.70392L26.9663 6.89014L26.0439 8.76184L27.6174 9.57562Z" fill="#80B857" stroke="#80B857" stroke-width="0.31" stroke-miterlimit="10"/>
<path d="M64.0791 35.9692L65.3542 37.217L66.8191 35.7522L65.5441 34.5044L64.0791 35.9692Z" fill="#80B857" stroke="#80B857" stroke-width="0.31" stroke-miterlimit="10"/>
<path d="M8.78985 36.0778L7.32488 34.6401L6.0498 35.8879L7.54191 37.3256L8.78985 36.0778Z" fill="#80B857" stroke="#80B857" stroke-width="0.31" stroke-miterlimit="10"/>
<path d="M54.6933 32.7144C53.3368 31.3852 52.74 29.5135 53.0655 27.6418L53.8794 22.8133C54.1507 21.2672 53.8794 19.7481 53.2283 18.4189C50.9766 17.795 49.0233 16.3845 47.6939 14.4585C46.2561 14.2686 44.7911 14.5128 43.4346 15.218L39.1211 17.4966C37.4662 18.3647 35.4587 18.3647 33.8038 17.4966L29.4902 15.218C28.1066 14.4856 26.5874 14.2686 25.1224 14.4856C23.8202 16.4116 21.8941 17.8221 19.6966 18.5003C19.0726 19.8295 18.8285 21.3214 19.0998 22.8405L19.9136 27.6689C20.2392 29.5406 19.6152 31.4123 18.2588 32.7415L14.7591 36.1594C13.6468 37.2444 12.9686 38.6007 12.6973 40.0655C14.1351 41.9101 14.8947 44.2158 14.8405 46.5758C15.8985 47.5795 17.2278 48.2576 18.7199 48.4746L23.5489 49.1799C25.4209 49.4512 27.0215 50.6176 27.8354 52.3265L30.0057 56.721C30.6839 58.1044 31.742 59.1623 33.0442 59.8676C34.0751 59.4878 35.1331 59.2708 36.2183 59.2437C34.1022 59.1623 32.2845 57.9959 31.335 56.0699L29.1647 51.6755C29.029 51.4043 28.8663 51.133 28.7035 50.8617C27.8896 50.7532 27.1029 50.482 26.4246 49.9666C25.6922 49.4241 25.1224 48.7188 24.7426 47.9321C24.4171 47.8507 24.0915 47.7694 23.766 47.7151L18.937 47.0098C16.7395 46.6843 15.0032 45.2195 14.325 43.1037C13.6468 40.9878 14.1894 38.7906 15.7629 37.2444L19.2625 33.8265C19.4796 33.6367 19.6695 33.4197 19.8322 33.1755C19.6695 32.3346 19.6966 31.4394 19.9679 30.5714C20.2392 29.7034 20.7546 28.9438 21.4057 28.3742C21.4057 28.0758 21.3515 27.7503 21.3244 27.4519L20.5105 22.6235C20.1307 20.4263 20.9717 18.3375 22.7893 17.0355C24.5799 15.7334 26.8316 15.5707 28.812 16.6015L33.1256 18.8801C33.3968 19.0157 33.6681 19.1513 33.9666 19.2598C34.6448 18.9072 35.4044 18.6902 36.2183 18.6631C37.1407 18.6631 38.0088 18.9072 38.7684 19.3141C39.1211 19.2056 39.5009 19.0428 39.8265 18.8801L44.14 16.6015C46.1204 15.5707 48.345 15.7334 50.1627 17.0355C51.9532 18.3375 52.7942 20.4534 52.4415 22.6506L51.6277 27.479C51.5463 27.8859 51.5463 28.2928 51.5463 28.6997C52.0617 29.2422 52.5229 29.8933 52.7671 30.6528C53.0113 31.4394 53.0655 32.2261 52.957 32.9856C53.174 33.284 53.4182 33.5824 53.6895 33.8537L57.1891 37.2716C58.7084 38.7635 59.2781 40.8522 58.6813 42.9138C59.0339 41.8559 59.5494 40.8793 60.2276 39.9842C59.9563 38.5736 59.2781 37.2444 58.1929 36.2136L54.6933 32.7958V32.7144Z" fill="#80B857" stroke="#80B857" stroke-width="0.21" stroke-miterlimit="10"/>
<path d="M53.9878 46.9824L49.1588 47.6877C48.8604 47.742 48.5619 47.7962 48.2635 47.8776C47.9108 48.6643 47.3683 49.3695 46.6358 49.9121C45.9033 50.4546 45.0351 50.7801 44.167 50.8615C44.0042 51.1056 43.8686 51.3497 43.7329 51.621L41.5626 56.0154C40.6402 57.9143 38.8497 59.0807 36.7607 59.1892C37.8459 59.1892 38.9039 59.4062 39.9349 59.786C41.1828 59.0807 42.2137 58.0228 42.8919 56.6936L45.0623 52.2992C45.9033 50.6173 47.5039 49.4238 49.3487 49.1525L54.1777 48.4473C55.6969 48.2302 57.0534 47.525 58.1114 46.4942C58.0572 45.382 58.2199 44.2698 58.5184 43.2119C57.813 45.2464 56.1039 46.6569 53.9607 46.9824H53.9878Z" fill="#80B857" stroke="#80B857" stroke-width="0.21" stroke-miterlimit="10"/>
<path d="M53.2279 18.3916C52.7125 17.3608 51.98 16.4385 51.0305 15.7332C50.0267 15.0008 48.8873 14.5668 47.7207 14.4312C49.05 16.3571 51.0033 17.7677 53.2551 18.3916H53.2279Z" fill="#80B857" stroke="#80B857" stroke-width="0.21" stroke-miterlimit="10"/>
<path d="M36.5438 59.2166C36.5438 59.2166 36.5167 59.2166 36.4896 59.2166C36.4082 59.2166 36.3268 59.2166 36.2454 59.2166C35.1602 59.2437 34.1022 59.4607 33.0713 59.8405C34.1022 60.4101 35.2688 60.7085 36.4896 60.7085C36.4896 60.7085 36.5438 60.7085 36.571 60.7085C37.7918 60.7085 38.9583 60.3559 39.9892 59.7862C38.9583 59.4065 37.9003 59.2166 36.8151 59.1895C36.7337 59.1895 36.6523 59.1895 36.571 59.1895L36.5438 59.2166Z" fill="#80B857" stroke="#80B857" stroke-width="0.21" stroke-miterlimit="10"/>
<path d="M12.9408 43.5105C13.3206 44.704 13.9988 45.7077 14.8399 46.5215C14.8941 44.1615 14.1616 41.8558 12.6966 40.0112C12.5067 41.1505 12.561 42.3441 12.9137 43.5105H12.9408Z" fill="#80B857" stroke="#80B857" stroke-width="0.21" stroke-miterlimit="10"/>
<path d="M25.1219 14.4585C23.9825 14.6213 22.8973 15.0553 21.9207 15.7605C20.9169 16.493 20.1844 17.4152 19.6689 18.4732C21.8935 17.795 23.8197 16.3844 25.0948 14.4585H25.1219Z" fill="#80B857" stroke="#80B857" stroke-width="0.21" stroke-miterlimit="10"/>
<path d="M58.5995 43.0763C58.5995 43.0763 58.5723 43.1577 58.5452 43.2119C58.2468 44.2699 58.084 45.382 58.1383 46.4942C58.9793 45.6804 59.6304 44.6768 60.0102 43.5375C60.39 42.3439 60.4443 41.0961 60.2272 39.9297C59.549 40.8248 59.0335 41.8014 58.6808 42.8593C58.6808 42.9407 58.6537 43.0221 58.6266 43.1034L58.5995 43.0763Z" fill="#80B857" stroke="#80B857" stroke-width="0.21" stroke-miterlimit="10"/>
<path d="M31.8497 50.2916L34.6983 48.7726C35.8377 48.1758 37.2213 48.1758 38.3879 48.7726L41.2635 50.2916C42.0774 50.7257 42.9456 50.9155 43.7866 50.8884C43.9222 50.8884 44.0579 50.8613 44.2206 50.8342C45.1702 49.3694 46.6351 48.3114 48.3171 47.8503C48.7241 46.928 48.8597 45.8701 48.6698 44.8393L48.1001 41.6384C47.8559 40.3364 48.29 39.0343 49.2124 38.112L51.4913 35.8334C52.3051 35.0196 52.7935 33.9889 52.9562 32.9038C52.0338 31.656 51.5455 30.1641 51.5455 28.6179C50.7588 27.8041 49.755 27.2073 48.5613 27.0174L45.3601 26.5563C44.0579 26.3664 42.9456 25.5526 42.3487 24.3591L40.8837 21.4566C40.3954 20.4801 39.6629 19.7477 38.7677 19.2323C37.2213 19.7477 35.5122 19.7477 33.9929 19.1509C33.0163 19.6391 32.1753 20.4258 31.6869 21.4566L30.2762 24.3591C29.7065 25.5255 28.5942 26.3393 27.3191 26.5292L24.1179 26.9903C23.087 27.1531 22.1917 27.6142 21.4592 28.2652C21.5406 30.0013 20.9709 31.7103 19.8857 33.0937C20.0756 34.0974 20.5911 35.0739 21.3507 35.8334L23.6838 38.112C24.6334 39.0343 25.0674 40.3364 24.8504 41.6384L24.3349 44.8393C24.1722 45.8972 24.3349 46.9551 24.769 47.8774C26.3967 48.3657 27.8075 49.3965 28.7299 50.807C29.7879 50.9698 30.8731 50.807 31.8497 50.2916ZM27.1292 48.9353C25.8542 48.0131 25.2573 46.5482 25.5015 45.0292L26.0169 41.8283C26.2882 40.1465 25.7185 38.4375 24.4977 37.244L22.1646 34.9654C21.0523 33.8804 20.6454 32.3342 21.1337 30.8422C21.5949 29.3774 22.7886 28.3738 24.2807 28.1567L27.4819 27.6956C29.1639 27.4515 30.6018 26.3935 31.3343 24.8745L32.745 21.972C33.3961 20.6157 34.6712 19.8019 36.1633 19.7477C36.1633 19.7477 36.2175 19.7477 36.2446 19.7477C37.7639 19.7477 39.1475 20.5886 39.8528 21.972L41.3178 24.8745C42.0774 26.3935 43.5424 27.4515 45.1973 27.6956L48.3985 28.1567C49.9449 28.3738 51.1386 29.4045 51.6269 30.8965C52.1152 32.3613 51.7354 33.8804 50.6503 34.9654L48.3714 37.244C47.1777 38.4375 46.6351 40.1465 46.9335 41.8283L47.5033 45.0292C47.7746 46.5482 47.2048 48.0131 45.984 48.9353C44.7361 49.8576 43.1897 49.9661 41.8061 49.2337L38.9304 47.7147C38.1437 47.3078 37.2756 47.0908 36.4074 47.1179C35.6207 47.1179 34.8611 47.3349 34.1557 47.7147L31.3071 49.2337C29.9507 49.939 28.4043 49.8305 27.1564 48.9353H27.1292Z" fill="#80B857"/>
<path d="M31.3343 24.8745C30.6018 26.3935 29.1639 27.4515 27.4819 27.6956L24.2807 28.1567C22.7886 28.3738 21.5949 29.3774 21.1337 30.8422C20.6454 32.3342 21.0523 33.8804 22.1646 34.9654L24.4977 37.244C25.7185 38.4375 26.2882 40.1465 26.0169 41.8283L25.5015 45.0292C25.2573 46.5482 25.8542 48.0131 27.1292 48.9353H27.1564C28.4043 49.8305 29.9507 49.939 31.3071 49.2337L34.1557 47.7147C34.8611 47.3349 35.6207 47.1179 36.4074 47.1179C37.2756 47.0908 38.1437 47.3078 38.9304 47.7147L41.8061 49.2337C43.1897 49.9661 44.7361 49.8576 45.984 48.9353C47.2048 48.0131 47.7746 46.5482 47.5033 45.0292L46.9335 41.8283C46.6351 40.1465 47.1777 38.4375 48.3714 37.244L50.6503 34.9654C51.7354 33.8804 52.1152 32.3613 51.6269 30.8965C51.1386 29.4045 49.9449 28.3738 48.3985 28.1567L45.1973 27.6956C43.5424 27.4515 42.0774 26.3935 41.3178 24.8745L39.8528 21.972C39.1475 20.5886 37.7639 19.7477 36.2446 19.7477C36.2175 19.7477 36.1633 19.7477 36.1633 19.7477C34.6712 19.8019 33.3961 20.6157 32.745 21.972L31.3343 24.8745ZM31.3343 24.8745L30.7917 24.6032M31.8497 50.2916L34.6983 48.7726C35.8377 48.1758 37.2213 48.1758 38.3879 48.7726L41.2635 50.2916C42.0774 50.7257 42.9456 50.9155 43.7866 50.8884C43.9222 50.8884 44.0579 50.8613 44.2206 50.8342C45.1702 49.3694 46.6351 48.3114 48.3171 47.8503C48.7241 46.928 48.8597 45.8701 48.6698 44.8393L48.1001 41.6384C47.8559 40.3364 48.29 39.0343 49.2124 38.112L51.4913 35.8334C52.3051 35.0196 52.7935 33.9889 52.9562 32.9038C52.0338 31.656 51.5455 30.1641 51.5455 28.6179C50.7588 27.8041 49.755 27.2073 48.5613 27.0174L45.3601 26.5563C44.0579 26.3664 42.9456 25.5526 42.3487 24.3591L40.8837 21.4566C40.3954 20.4801 39.6629 19.7477 38.7677 19.2323C37.2213 19.7477 35.5122 19.7477 33.9929 19.1509C33.0163 19.6391 32.1753 20.4258 31.6869 21.4566L30.2762 24.3591C29.7065 25.5255 28.5942 26.3393 27.3191 26.5292L24.1179 26.9903C23.087 27.1531 22.1917 27.6142 21.4592 28.2652C21.5406 30.0013 20.9709 31.7103 19.8857 33.0937C20.0756 34.0974 20.5911 35.0739 21.3507 35.8334L23.6838 38.112C24.6334 39.0343 25.0674 40.3364 24.8504 41.6384L24.3349 44.8393C24.1722 45.8972 24.3349 46.9551 24.769 47.8774C26.3968 48.3657 27.8075 49.3965 28.7299 50.807C29.7879 50.9698 30.8731 50.807 31.8497 50.2916Z" stroke="#80B857" stroke-width="0.1" stroke-miterlimit="10"/>
<path d="M20.0215 30.5168C19.7502 31.3849 19.7231 32.28 19.8859 33.1209C20.971 31.7646 21.5408 30.0557 21.4594 28.2925C20.8083 28.8893 20.2928 29.6217 20.0215 30.4897V30.5168Z" fill="#80B857" stroke="#80B857" stroke-width="0.1" stroke-miterlimit="10"/>
<path d="M24.7695 47.8774C25.1493 48.6641 25.6919 49.3694 26.4515 49.9119C27.1569 50.4002 27.9436 50.6986 28.7304 50.8071C27.7809 49.3965 26.3973 48.3657 24.7695 47.8774Z" fill="#80B857" stroke="#80B857" stroke-width="0.1" stroke-miterlimit="10"/>
<path d="M38.7413 19.2327C37.9817 18.7986 37.1136 18.5545 36.1912 18.5816C35.3773 18.5816 34.6448 18.8258 33.9395 19.1784C35.4858 19.7481 37.1678 19.7752 38.7142 19.2598L38.7413 19.2327Z" fill="#80B857" stroke="#80B857" stroke-width="0.1" stroke-miterlimit="10"/>
<path d="M52.712 30.5712C52.4679 29.8117 52.0338 29.1607 51.4912 28.6182C51.4912 30.1644 51.9795 31.6563 52.9019 32.9041C53.0104 32.1446 52.9562 31.3308 52.712 30.5712Z" fill="#80B857" stroke="#80B857" stroke-width="0.1" stroke-miterlimit="10"/>
<path d="M44.1934 50.8613C45.0615 50.7528 45.9025 50.4544 46.6621 49.9119C47.3946 49.3694 47.9372 48.6641 48.2899 47.8774C46.6079 48.3386 45.1429 49.3965 44.1934 50.8613Z" fill="#80B857" stroke="#80B857" stroke-width="0.1" stroke-miterlimit="10"/>
<path d="M36.4349 39.1703C38.3339 39.1703 39.8532 37.6241 39.8532 35.7253C39.8532 33.8265 38.3068 32.2803 36.4349 32.2803C34.563 32.2803 33.0166 33.8265 33.0166 35.7253C33.0166 37.6241 34.563 39.1703 36.4349 39.1703Z" fill="#80B857"/>
<path d="M92.7549 55.2831C92.972 55.3102 93.1076 55.3374 93.3789 55.3645C94.3284 55.473 95.3593 55.5001 95.495 55.5001C96.9328 55.5273 97.6382 55.5544 98.2622 55.5273C99.4287 55.473 100.568 55.3374 101.68 55.0932C102.82 54.8491 103.878 54.5236 104.882 54.0896C105.885 53.6556 106.808 53.1402 107.676 52.5163C108.517 51.8924 109.249 51.16 109.846 50.2919C110.443 49.4239 110.904 48.4745 111.23 47.3894C111.555 46.3044 111.664 45.1108 111.61 43.7817C111.528 42.2083 111.176 40.852 110.552 39.7399C109.928 38.6277 109.087 37.6783 108.029 36.9459C106.971 36.2135 105.75 35.671 104.339 35.3183C102.928 34.9657 101.409 34.7487 99.7543 34.7215V34.5859C100.975 34.2061 102.142 33.7179 103.227 33.094C104.312 32.4972 105.289 31.7648 106.103 30.9239C106.916 30.083 107.567 29.1064 108.029 27.9671C108.49 26.855 108.68 25.6072 108.598 24.1966C108.544 23.2201 108.354 22.352 108.056 21.6196C107.73 20.8872 107.323 20.2362 106.781 19.7208C106.265 19.1783 105.641 18.7443 104.936 18.4188C104.231 18.0661 103.471 17.822 102.63 17.6321C101.789 17.4422 100.921 17.3337 99.9984 17.2795C99.076 17.2252 98.1536 17.2252 97.177 17.2795C96.0104 17.3337 94.7896 17.4422 93.5688 17.605C92.3209 17.7677 91.0729 17.9576 89.8521 18.1746C88.6313 18.3916 87.4376 18.6358 86.2711 18.8799C85.4029 19.0698 85.5114 19.0427 84.7518 19.2054C84.372 19.2868 83.748 19.4224 83.748 19.8022C83.748 20.2633 84.0193 20.8601 84.5077 20.8059C85.2944 20.7516 85.4843 20.6702 86.0269 20.6431C86.5423 20.6431 86.9764 20.6431 87.3291 20.7245C87.6818 20.8059 87.9531 20.9415 88.143 21.1314C88.3329 21.3212 88.4957 21.5925 88.577 21.918C88.6584 22.2435 88.7398 22.6233 88.7398 23.0844C88.8212 24.6306 88.8755 26.2582 88.9569 27.8858V52.8418C88.9569 54.2252 88.9569 55.039 89.0111 55.3645C89.0925 56.124 89.5537 56.2054 89.7436 56.2054C89.7707 56.2054 89.8521 56.2054 89.9064 56.1783C89.9878 56.1512 90.042 56.0969 90.0691 56.0698C90.2048 55.9342 90.3947 55.7171 90.666 55.5273C90.9373 55.3374 91.2357 55.1204 91.6426 55.0932C91.9139 55.0932 91.9682 55.1475 92.6735 55.256L92.7549 55.2831ZM93.2433 21.4569V21.05C93.2433 21.05 93.1076 20.5617 93.0262 19.8836C93.0262 19.5038 93.3247 19.5309 93.5688 19.5038C93.8944 19.4495 94.247 19.3953 94.5726 19.341C95.1152 19.2597 95.6578 19.2325 96.1732 19.2054C97.2584 19.1512 98.2622 19.2054 99.2388 19.3953C100.188 19.5852 101.029 19.9107 101.762 20.399C102.494 20.8872 103.091 21.5383 103.525 22.3792C103.959 23.2201 104.231 24.2509 104.285 25.4987C104.339 26.5566 104.231 27.506 103.959 28.3469C103.688 29.1878 103.308 29.9473 102.82 30.5712C102.332 31.2223 101.708 31.7648 101.029 32.2531C100.324 32.7142 99.5644 33.1211 98.7234 33.4195C97.8824 33.7179 97.0142 33.9891 96.0918 34.1519C95.4407 34.2875 94.7625 34.3689 94.1114 34.4503C93.8401 34.4774 93.5688 34.3689 93.4332 34.1519V33.9078L93.2704 21.4298L93.2433 21.4569ZM93.4332 51.5126C93.4332 46.6842 93.4332 41.8557 93.4332 37.0273C93.4332 36.6746 93.6773 36.3762 94.03 36.322C94.1657 36.322 94.3013 36.322 94.437 36.2949C94.7896 36.2677 95.1694 36.2406 95.5221 36.2135C97.3126 36.1321 98.9133 36.2135 100.324 36.539C101.735 36.8374 102.928 37.3256 103.932 38.0038C104.936 38.682 105.696 39.55 106.238 40.635C106.781 41.6929 107.106 42.9679 107.188 44.4056C107.269 45.9517 107.079 47.3081 106.645 48.4474C106.211 49.5866 105.56 50.5361 104.719 51.2685C103.525 52.3535 102.304 52.7875 101.735 52.9774C101.626 53.0045 101.545 53.0317 101.491 53.0588C100.27 53.4114 99.2659 53.4657 97.9637 53.4928C95.2508 53.5742 94.4641 53.4657 94.1114 53.0588C93.8401 52.7604 93.6773 52.4078 93.6773 52.4078C93.5146 52.0551 93.4874 51.7296 93.4874 51.5397L93.4332 51.5126Z" fill="#80B857"/>
</g>
<defs>
<clipPath id="clip0_2_82">
<rect width="244" height="74" fill="white"/>
</clipPath>
</defs>
</svg>
