<svg width="56" height="56" viewBox="0 0 56 56" fill="none" xmlns="http://www.w3.org/2000/svg">
<circle cx="28" cy="28" r="28" fill="#7EB693"/>
<path d="M39.6781 35.8921L34.9175 31.1315C36.0637 29.6057 36.6824 27.7485 36.6803 25.8402C36.6803 20.9657 32.7146 17 27.8402 17C22.9657 17 19 20.9657 19 25.8402C19 30.7146 22.9657 34.6803 27.8402 34.6803C29.7485 34.6824 31.6057 34.0637 33.1315 32.9175L37.8921 37.6781C38.1331 37.8936 38.4474 38.0085 38.7705 37.9995C39.0936 37.9905 39.401 37.8581 39.6295 37.6295C39.8581 37.401 39.9905 37.0936 39.9995 36.7705C40.0085 36.4474 39.8936 36.1331 39.6781 35.8921ZM21.5258 25.8402C21.5258 24.5913 21.8961 23.3705 22.5899 22.3321C23.2838 21.2937 24.2699 20.4843 25.4237 20.0064C26.5775 19.5285 27.8472 19.4034 29.072 19.6471C30.2969 19.8907 31.422 20.4921 32.3051 21.3752C33.1882 22.2583 33.7896 23.3834 34.0332 24.6083C34.2769 25.8332 34.1518 27.1028 33.6739 28.2566C33.196 29.4104 32.3867 30.3966 31.3483 31.0904C30.3099 31.7842 29.089 32.1546 27.8402 32.1546C26.1661 32.1526 24.5612 31.4866 23.3774 30.3029C22.1937 29.1192 21.5278 27.5142 21.5258 25.8402Z" fill="#FAFAFA"/>
</svg>
