<svg width="20" height="19" viewBox="0 0 20 19" fill="none" xmlns="http://www.w3.org/2000/svg">
<path d="M14.1585 1.54725C15.2231 1.55031 16.2431 1.95889 16.9958 2.68376C17.7486 3.40863 18.1729 4.39088 18.1761 5.41599V13.1527C18.1729 14.1778 17.7486 15.16 16.9958 15.8849C16.2431 16.6098 15.2231 17.0183 14.1585 17.0214H6.1243C5.05976 17.0183 4.03973 16.6098 3.28698 15.8849C2.53423 15.16 2.10994 14.1778 2.10676 13.1527V5.41599C2.10994 4.39088 2.53423 3.40863 3.28698 2.68376C4.03973 1.95889 5.05976 1.55031 6.1243 1.54725H14.1585ZM14.1585 0H6.1243C3.03087 0 0.5 2.43713 0.5 5.41599V13.1527C0.5 16.1315 3.03087 18.5686 6.1243 18.5686H14.1585C17.252 18.5686 19.7828 16.1315 19.7828 13.1527V5.41599C19.7828 2.43713 17.252 0 14.1585 0Z" fill="#274C5B"/>
<path d="M15.3633 5.41678C15.1249 5.41678 14.8919 5.34872 14.6937 5.2212C14.4956 5.09368 14.3411 4.91242 14.2499 4.70036C14.1587 4.4883 14.1348 4.25496 14.1813 4.02983C14.2278 3.80471 14.3426 3.59792 14.5111 3.43562C14.6797 3.27331 14.8944 3.16278 15.1282 3.118C15.362 3.07322 15.6043 3.09621 15.8245 3.18404C16.0447 3.27188 16.2329 3.42063 16.3654 3.61148C16.4978 3.80233 16.5685 4.02671 16.5685 4.25624C16.5688 4.40874 16.5379 4.5598 16.4774 4.70075C16.417 4.8417 16.3282 4.96977 16.2163 5.0776C16.1043 5.18543 15.9713 5.2709 15.8249 5.32911C15.6785 5.38732 15.5217 5.41711 15.3633 5.41678ZM10.141 6.1902C10.7767 6.1902 11.3981 6.37172 11.9266 6.71179C12.4551 7.05186 12.8671 7.53522 13.1103 8.10074C13.3536 8.66627 13.4172 9.28855 13.2932 9.8889C13.1692 10.4893 12.8631 11.0407 12.4136 11.4735C11.9641 11.9064 11.3915 12.2011 10.768 12.3206C10.1446 12.44 9.49837 12.3787 8.9111 12.1444C8.32382 11.9102 7.82187 11.5135 7.46872 11.0046C7.11557 10.4956 6.92707 9.89723 6.92707 9.28511C6.92798 8.46456 7.26689 7.67787 7.86942 7.09765C8.47196 6.51743 9.28891 6.19108 10.141 6.1902ZM10.141 4.64295C9.18757 4.64295 8.25554 4.91521 7.46278 5.4253C6.67002 5.93539 6.05214 6.66039 5.68727 7.50864C5.3224 8.35688 5.22694 9.29027 5.41294 10.1908C5.59895 11.0912 6.05808 11.9184 6.73227 12.5676C7.40645 13.2168 8.26542 13.659 9.20055 13.8381C10.1357 14.0172 11.105 13.9253 11.9858 13.5739C12.8667 13.2226 13.6196 12.6276 14.1493 11.8642C14.679 11.1008 14.9617 10.2032 14.9617 9.28511C14.9617 8.05394 14.4538 6.87319 13.5498 6.00261C12.6457 5.13204 11.4196 4.64295 10.141 4.64295Z" fill="#274C5B"/>
</svg>
