<svg width="21" height="20" viewBox="0 0 21 20" fill="none" xmlns="http://www.w3.org/2000/svg">
<path d="M10.2966 0C4.88662 0 0.5 4.38466 0.5 9.79227C0.5 13.801 2.91417 17.2458 6.36486 18.7627C6.33862 18.0807 6.36049 17.2589 6.53543 16.5157C6.72349 15.7201 7.795 11.178 7.795 11.178C7.795 11.178 7.4801 10.5529 7.4801 9.63052C7.4801 8.17916 8.31982 7.09502 9.36946 7.09502C10.2617 7.09502 10.6903 7.76387 10.6903 8.56386C10.6903 9.46003 10.1173 10.7977 9.8243 12.0392C9.57938 13.0797 10.3447 13.9234 11.3725 13.9234C13.2269 13.9234 14.4777 11.5409 14.4777 8.71687C14.4777 6.57044 13.0301 4.96608 10.4016 4.96608C7.432 4.96608 5.57763 7.18245 5.57763 9.65675C5.57763 10.5092 5.8313 11.1125 6.22491 11.5759C6.40422 11.7901 6.43046 11.8775 6.36486 12.1223C6.31675 12.3015 6.21179 12.7343 6.16368 12.9092C6.09808 13.1584 5.8969 13.2458 5.67385 13.154C4.30494 12.5944 3.66641 11.0994 3.66641 9.41194C3.66641 6.63164 6.01498 3.29615 10.6684 3.29615C14.4077 3.29615 16.87 6.00213 16.87 8.90484C16.87 12.7474 14.7314 15.6152 11.5824 15.6152C10.5241 15.6152 9.53128 15.0425 9.19014 14.3955C9.19014 14.3955 8.62159 16.6512 8.49913 17.0884C8.29357 17.8447 7.88684 18.5966 7.51509 19.1867C8.41686 19.4526 9.35208 19.5881 10.2923 19.5889C15.7023 19.5889 20.0889 15.2042 20.0889 9.79664C20.0889 4.38903 15.7067 0 10.2966 0Z" fill="#274C5B"/>
</svg>
