<svg width="23" height="21" viewBox="0 0 23 21" fill="none" xmlns="http://www.w3.org/2000/svg">
<path d="M10.1803 0.781664C10.4879 -0.122033 11.766 -0.122035 12.0736 0.781662L14.0418 6.5641C14.1798 6.96936 14.5604 7.24187 14.9885 7.24187H21.2553C22.2353 7.24187 22.6304 8.50513 21.8252 9.06359L16.8364 12.5235C16.4696 12.7779 16.3158 13.2448 16.4597 13.6674L18.3839 19.3205C18.6947 20.2337 17.66 21.0142 16.8673 20.4644L11.6968 16.8785C11.3541 16.6408 10.8998 16.6408 10.557 16.8785L5.38654 20.4644C4.59387 21.0142 3.55915 20.2337 3.86998 19.3205L5.79418 13.6674C5.93805 13.2448 5.78429 12.7779 5.41741 12.5235L0.428648 9.06359C-0.37659 8.50513 0.0185978 7.24187 0.998541 7.24187H7.26536C7.69347 7.24187 8.07408 6.96936 8.21203 6.5641L10.1803 0.781664Z" fill="#FFA858"/>
</svg>
