<svg width="22" height="17" viewBox="0 0 22 17" fill="none" xmlns="http://www.w3.org/2000/svg">
<path d="M21.1602 1.95842C20.3852 2.29516 19.5652 2.51701 18.7261 2.61696C19.6079 2.10062 20.2711 1.28032 20.5912 0.30991C19.7575 0.7974 18.8469 1.13945 17.8984 1.3214C17.4991 0.902826 17.0187 0.569842 16.4866 0.342684C15.9546 0.115526 15.3818 -0.00106199 14.8033 7.28892e-06C12.4609 7.28892e-06 10.5654 1.86803 10.5654 4.17078C10.5637 4.49108 10.6004 4.81043 10.6747 5.12201C8.99507 5.04327 7.35036 4.61479 5.84581 3.864C4.34126 3.1132 3.00999 2.05662 1.93717 0.761851C1.5608 1.39634 1.36176 2.12028 1.36084 2.858C1.36084 4.30421 2.11537 5.58256 3.25469 6.33149C2.57967 6.31547 1.91849 6.13681 1.32727 5.81068V5.86233C1.32727 7.8853 2.7907 9.56825 4.72759 9.95132C4.36336 10.0484 3.98803 10.0976 3.61108 10.0977C3.34361 10.0981 3.07674 10.0722 2.81437 10.0202C3.35283 11.6773 4.91999 12.8825 6.77639 12.9169C5.26793 14.0794 3.41593 14.7078 1.51149 14.7032C1.17344 14.7027 0.835713 14.6825 0.5 14.6429C2.4374 15.88 4.68947 16.5344 6.98815 16.5281C14.7943 16.5281 19.0589 10.1708 19.0589 4.65715C19.0589 4.47638 19.0541 4.2956 19.0455 4.11913C19.8733 3.53034 20.5893 2.79865 21.1602 1.95842Z" fill="#274C5B"/>
</svg>
